# xmcd
#
# Track frame offsets:
#	150
#	6189
#	22775
#	44614
#	57501
#	107760
#	133729
#	161280
#	178019
#
# Disc length: 2647 seconds
#
# Revision: 1
# Processed by: cddbd v1.5.2PL0 Copyright (c) Steve Scherf et al.
# Submitted via: audiograbber 1.83.01
#
DISCID=6f0a5509
DTITLE=Grateful Dead - 81-10-16 Melk Weg, Amsterdam, The Netherlands
DYEAR=1900
DGENRE=
TTITLE0="Happy Birthday Bobby"
TTITLE1=On The Road Again
TTITLE2=Dire Wolf
TTITLE3=Monkey and The Engineer
TTITLE4=Bird Song
TTITLE5=Cassidy
TTITLE6=Oh Baby It Ain't No Lie
TTITLE7=The Race Is On
TTITLE8=Ripple
EXTD=
EXTT0=
EXTT1=
EXTT2=
EXTT3=
EXTT4=
EXTT5=
EXTT6=
EXTT7=
EXTT8=
PLAYORDER=
